solid OpenSCAD_Model
  facet normal -0.707107 0 0.707106
    outer loop
      vertex 0 3.5 2.43934
      vertex 1.06066 14.2 3.5
      vertex 0 14.2 2.43934
    endloop
  endfacet
  facet normal -0.707107 0 0.707106
    outer loop
      vertex 1.06066 14.2 3.5
      vertex 0 3.5 2.43934
      vertex 1.06066 3.5 3.5
    endloop
  endfacet
  facet normal -0.707107 0 0.707106
    outer loop
      vertex 24 17.7 2.43934
      vertex 25 14.7 3.43934
      vertex 25 17.7 3.43934
    endloop
  endfacet
  facet normal -0.707107 0 0.707107
    outer loop
      vertex 25 14.7 3.43934
      vertex 25.0607 3.06066 3.5
      vertex 25.0607 14.6393 3.5
    endloop
  endfacet
  facet normal -0.707107 0 0.707106
    outer loop
      vertex 25 3 3.43934
      vertex 25 14.7 3.43934
      vertex 24 17.7 2.43934
    endloop
  endfacet
  facet normal -0.707107 0 0.707107
    outer loop
      vertex 25 14.7 3.43934
      vertex 25 3 3.43934
      vertex 25.0607 3.06066 3.5
    endloop
  endfacet
  facet normal -0.707107 0 0.707106
    outer loop
      vertex 24 0 2.43934
      vertex 25 3 3.43934
      vertex 24 17.7 2.43934
    endloop
  endfacet
  facet normal -0.707107 0 0.707106
    outer loop
      vertex 25 3 3.43934
      vertex 24 0 2.43934
      vertex 25 0 3.43934
    endloop
  endfacet
  facet normal -1 0 0
    outer loop
      vertex 0 3.5 0
      vertex 0 14.2 2.43934
      vertex 0 14.2 0
    endloop
  endfacet
  facet normal -1 -0 0
    outer loop
      vertex 0 14.2 2.43934
      vertex 0 3.5 0
      vertex 0 3.5 2.43934
    endloop
  endfacet
  facet normal -0 0 1
    outer loop
      vertex 1.5 14.2 3.5
      vertex 2 3 3.5
      vertex 2 14.7 3.5
    endloop
  endfacet
  facet normal 0 0 1
    outer loop
      vertex 1.5 14.2 3.5
      vertex 1.5 3.5 3.5
      vertex 2 3 3.5
    endloop
  endfacet
  facet normal -0 0 1
    outer loop
      vertex 1.06066 14.2 3.5
      vertex 1.5 3.5 3.5
      vertex 1.5 14.2 3.5
    endloop
  endfacet
  facet normal 0 0 1
    outer loop
      vertex 1.5 3.5 3.5
      vertex 1.06066 14.2 3.5
      vertex 1.06066 3.5 3.5
    endloop
  endfacet
  facet normal 0 0 1
    outer loop
      vertex 2 14.7 3.5
      vertex 3 17.7 3.5
      vertex 2 17.7 3.5
    endloop
  endfacet
  facet normal 0 0 1
    outer loop
      vertex 3 17.7 3.5
      vertex 2 14.7 3.5
      vertex 3 0 3.5
    endloop
  endfacet
  facet normal -0 0 1
    outer loop
      vertex 2 3 3.5
      vertex 3 0 3.5
      vertex 2 14.7 3.5
    endloop
  endfacet
  facet normal 0 0 1
    outer loop
      vertex 3 0 3.5
      vertex 2 3 3.5
      vertex 2 0 3.5
    endloop
  endfacet
  facet normal -0 0 1
    outer loop
      vertex 25.5 14.2 3.5
      vertex 27 3.5 3.5
      vertex 27 14.2 3.5
    endloop
  endfacet
  facet normal 0 0 1
    outer loop
      vertex 25.5 14.2 3.5
      vertex 25.5 3.5 3.5
      vertex 27 3.5 3.5
    endloop
  endfacet
  facet normal 0 0 1
    outer loop
      vertex 25.0607 14.6393 3.5
      vertex 25.5 3.5 3.5
      vertex 25.5 14.2 3.5
    endloop
  endfacet
  facet normal 0 0 1
    outer loop
      vertex 25.5 3.5 3.5
      vertex 25.0607 14.6393 3.5
      vertex 25.0607 3.06066 3.5
    endloop
  endfacet
  facet normal 1 -0 0
    outer loop
      vertex 27 3.5 3.5
      vertex 27 14.2 0
      vertex 27 14.2 3.5
    endloop
  endfacet
  facet normal 1 0 0
    outer loop
      vertex 27 14.2 0
      vertex 27 3.5 3.5
      vertex 27 3.5 0
    endloop
  endfacet
  facet normal 0 0 -1
    outer loop
      vertex 2 -1.104 0
      vertex 0 -0.299999 0
      vertex 2 -0.299999 0
    endloop
  endfacet
  facet normal 0 0 -1
    outer loop
      vertex -0.804 -1.104 0
      vertex 0 0 0
      vertex 0 -0.299999 0
    endloop
  endfacet
  facet normal 0 0 -1
    outer loop
      vertex 0 0 0
      vertex -0.804 3 0
      vertex 0 3.5 0
    endloop
  endfacet
  facet normal 0 0 -1
    outer loop
      vertex -0.804 -1.104 0
      vertex 0 -0.299999 0
      vertex 2 -1.104 0
    endloop
  endfacet
  facet normal -0 0 -1
    outer loop
      vertex 0 0 0
      vertex -0.804 -1.104 0
      vertex -0.804 3 0
    endloop
  endfacet
  facet normal -0 0 -1
    outer loop
      vertex 0 3.5 0
      vertex -0.804 3 0
      vertex -0.304 3.5 0
    endloop
  endfacet
  facet normal 0 0 -1
    outer loop
      vertex 27 14.2 0
      vertex 27.804 14.7 0
      vertex 27.304 14.2 0
    endloop
  endfacet
  facet normal -0 0 -1
    outer loop
      vertex 27.804 14.7 0
      vertex 27 14.2 0
      vertex 27 17.7 0
    endloop
  endfacet
  facet normal 0 0 -1
    outer loop
      vertex 27.804 14.7 0
      vertex 27 17.7 0
      vertex 27.804 18.804 0
    endloop
  endfacet
  facet normal 0 0 -1
    outer loop
      vertex 27 18 0
      vertex 27.804 18.804 0
      vertex 27 17.7 0
    endloop
  endfacet
  facet normal 0 0 -1
    outer loop
      vertex 25 18.804 0
      vertex 27 18 0
      vertex 25 18 0
    endloop
  endfacet
  facet normal 0 0 -1
    outer loop
      vertex 27 18 0
      vertex 25 18.804 0
      vertex 27.804 18.804 0
    endloop
  endfacet
  facet normal 0 0 -1
    outer loop
      vertex 27 0 0
      vertex 27.804 3 0
      vertex 27.804 -1.104 0
    endloop
  endfacet
  facet normal 0 0 -1
    outer loop
      vertex 27 0 0
      vertex 27.804 -1.104 0
      vertex 27 -0.299999 0
    endloop
  endfacet
  facet normal 0 0 -1
    outer loop
      vertex 25 -1.104 0
      vertex 27 -0.299999 0
      vertex 27.804 -1.104 0
    endloop
  endfacet
  facet normal -0 0 -1
    outer loop
      vertex 27 -0.299999 0
      vertex 25 -1.104 0
      vertex 25 -0.299999 0
    endloop
  endfacet
  facet normal 0 0 -1
    outer loop
      vertex 27 3.5 0
      vertex 27.804 3 0
      vertex 27 0 0
    endloop
  endfacet
  facet normal 0 0 -1
    outer loop
      vertex 27.804 3 0
      vertex 27 3.5 0
      vertex 27.304 3.5 0
    endloop
  endfacet
  facet normal 0 0 -1
    outer loop
      vertex 24 0.804 0
      vertex 27 3.5 0
      vertex 27 0 0
    endloop
  endfacet
  facet normal -0 0 -1
    outer loop
      vertex 27 3.5 0
      vertex 24 0.804 0
      vertex 27 14.2 0
    endloop
  endfacet
  facet normal 0 0 -1
    outer loop
      vertex 24 16.896 0
      vertex 27 14.2 0
      vertex 24 0.804 0
    endloop
  endfacet
  facet normal 0 0 -1
    outer loop
      vertex 27 0 0
      vertex 3 0.804 0
      vertex 24 0.804 0
    endloop
  endfacet
  facet normal 0 0 -1
    outer loop
      vertex 0 3.5 0
      vertex 3 0.804 0
      vertex 0 0 0
    endloop
  endfacet
  facet normal 0 0 -1
    outer loop
      vertex 0 0 0
      vertex 3 0.804 0
      vertex 27 0 0
    endloop
  endfacet
  facet normal 0 0 -1
    outer loop
      vertex 0 18 0
      vertex 2 18.804 0
      vertex 2 18 0
    endloop
  endfacet
  facet normal 0 0 -1
    outer loop
      vertex -0.804 18.804 0
      vertex 0 17.7 0
      vertex -0.804 14.7 0
    endloop
  endfacet
  facet normal 0 0 -1
    outer loop
      vertex 0 18 0
      vertex -0.804 18.804 0
      vertex 2 18.804 0
    endloop
  endfacet
  facet normal 0 0 -1
    outer loop
      vertex 0 17.7 0
      vertex -0.804 18.804 0
      vertex 0 18 0
    endloop
  endfacet
  facet normal 0 0 -1
    outer loop
      vertex 27 14.2 0
      vertex 24 16.896 0
      vertex 27 17.7 0
    endloop
  endfacet
  facet normal 0 0 -1
    outer loop
      vertex 3 16.896 0
      vertex 27 17.7 0
      vertex 24 16.896 0
    endloop
  endfacet
  facet normal 0 0 -1
    outer loop
      vertex 3 0.804 0
      vertex 0 3.5 0
      vertex 3 16.896 0
    endloop
  endfacet
  facet normal 0 0 -1
    outer loop
      vertex 0 14.2 0
      vertex 3 16.896 0
      vertex 0 3.5 0
    endloop
  endfacet
  facet normal 0 0 -1
    outer loop
      vertex 3 16.896 0
      vertex 0 17.7 0
      vertex 27 17.7 0
    endloop
  endfacet
  facet normal 0 0 -1
    outer loop
      vertex 0 14.2 0
      vertex 0 17.7 0
      vertex 3 16.896 0
    endloop
  endfacet
  facet normal 0 0 -1
    outer loop
      vertex -0.804 14.7 0
      vertex 0 14.2 0
      vertex -0.304 14.2 0
    endloop
  endfacet
  facet normal 0 0 -1
    outer loop
      vertex 0 14.2 0
      vertex -0.804 14.7 0
      vertex 0 17.7 0
    endloop
  endfacet
  facet normal 0 -1 0
    outer loop
      vertex 0 0 4.5
      vertex 0 0 2.43934
      vertex 1.06066 0 3.5
    endloop
  endfacet
  facet normal 0 -1 0
    outer loop
      vertex 0 0 4.5
      vertex -0.804 0 6.5
      vertex -0.804 0 4.5
    endloop
  endfacet
  facet normal 0 -1 0
    outer loop
      vertex -0.804 0 6.5
      vertex 0 0 4.5
      vertex 2 0 6.5
    endloop
  endfacet
  facet normal 0 -1 0
    outer loop
      vertex 1.06066 0 3.5
      vertex 2 0 6.5
      vertex 0 0 4.5
    endloop
  endfacet
  facet normal 0 -1 -0
    outer loop
      vertex 2 0 6.5
      vertex 1.06066 0 3.5
      vertex 2 0 3.5
    endloop
  endfacet
  facet normal 0 -1 0
    outer loop
      vertex 25 0 6.5
      vertex 27 0 4.5
      vertex 27.804 0 6.5
    endloop
  endfacet
  facet normal 0 -1 0
    outer loop
      vertex 25 0 6.5
      vertex 25.0607 0 3.5
      vertex 27 0 4.5
    endloop
  endfacet
  facet normal -0 -1 0
    outer loop
      vertex 25.0607 0 3.5
      vertex 25 0 6.5
      vertex 25 0 3.43934
    endloop
  endfacet
  facet normal 0 -1 -0
    outer loop
      vertex 27.804 0 6.5
      vertex 27 0 4.5
      vertex 27.804 0 4.5
    endloop
  endfacet
  facet normal 0 -1 -0
    outer loop
      vertex 27 0 4.5
      vertex 25.0607 0 3.5
      vertex 27 0 3.5
    endloop
  endfacet
  facet normal 0 -1 0
    outer loop
      vertex 0 0 2.43934
      vertex 2 0 3.5
      vertex 1.06066 0 3.5
    endloop
  endfacet
  facet normal 0 -1 -0
    outer loop
      vertex 2 0 3.5
      vertex 0 0 2.43934
      vertex 3 0 0.804
    endloop
  endfacet
  facet normal 0 -1 0
    outer loop
      vertex 2 0 3.5
      vertex 3 0 0.804
      vertex 3 0 3.5
    endloop
  endfacet
  facet normal 0 -1 -0
    outer loop
      vertex 3 0 0.804
      vertex 0 0 0
      vertex 24 0 0.804
    endloop
  endfacet
  facet normal 0 -1 0
    outer loop
      vertex 0 0 0
      vertex 3 0 0.804
      vertex 0 0 2.43934
    endloop
  endfacet
  facet normal 0 -1 0
    outer loop
      vertex 25 0 3.43934
      vertex 27 0 3.5
      vertex 25.0607 0 3.5
    endloop
  endfacet
  facet normal 0 -1 0
    outer loop
      vertex 27 0 0
      vertex 25 0 3.43934
      vertex 24 0 2.43934
    endloop
  endfacet
  facet normal 0 -1 0
    outer loop
      vertex 27 0 0
      vertex 24 0 2.43934
      vertex 24 0 0.804
    endloop
  endfacet
  facet normal 0 -1 0
    outer loop
      vertex 25 0 3.43934
      vertex 27 0 0
      vertex 27 0 3.5
    endloop
  endfacet
  facet normal 0 -1 0
    outer loop
      vertex 27 0 0
      vertex 24 0 0.804
      vertex 0 0 0
    endloop
  endfacet
  facet normal 0 1 0
    outer loop
      vertex 2 17.7 6.5
      vertex 0 17.7 4.5
      vertex -0.804 17.7 6.5
    endloop
  endfacet
  facet normal 0 1 0
    outer loop
      vertex 1.06066 17.7 3.5
      vertex 2 17.7 6.5
      vertex 2 17.7 3.5
    endloop
  endfacet
  facet normal 0 1 0
    outer loop
      vertex 2 17.7 6.5
      vertex 1.06066 17.7 3.5
      vertex 0 17.7 4.5
    endloop
  endfacet
  facet normal 0 1 0
    outer loop
      vertex 0 17.7 4.5
      vertex 1.06066 17.7 3.5
      vertex 0 17.7 2.43934
    endloop
  endfacet
  facet normal 0 1 0
    outer loop
      vertex -0.804 17.7 6.5
      vertex 0 17.7 4.5
      vertex -0.804 17.7 4.5
    endloop
  endfacet
  facet normal 0 1 0
    outer loop
      vertex 27 17.7 4.5
      vertex 27.804 17.7 6.5
      vertex 27.804 17.7 4.5
    endloop
  endfacet
  facet normal 0 1 0
    outer loop
      vertex 27.804 17.7 6.5
      vertex 27 17.7 4.5
      vertex 25 17.7 6.5
    endloop
  endfacet
  facet normal 0 1 0
    outer loop
      vertex 25.0607 17.7 3.5
      vertex 27 17.7 4.5
      vertex 27 17.7 3.5
    endloop
  endfacet
  facet normal 0 1 0
    outer loop
      vertex 27 17.7 4.5
      vertex 25.0607 17.7 3.5
      vertex 25 17.7 6.5
    endloop
  endfacet
  facet normal 0 1 0
    outer loop
      vertex 25 17.7 6.5
      vertex 25.0607 17.7 3.5
      vertex 25 17.7 3.43934
    endloop
  endfacet
  facet normal 0 1 0
    outer loop
      vertex 27 17.7 3.5
      vertex 25 17.7 3.43934
      vertex 25.0607 17.7 3.5
    endloop
  endfacet
  facet normal 0 1 -0
    outer loop
      vertex 27 17.7 0
      vertex 25 17.7 3.43934
      vertex 27 17.7 3.5
    endloop
  endfacet
  facet normal 0 1 0
    outer loop
      vertex 25 17.7 3.43934
      vertex 27 17.7 0
      vertex 24 17.7 2.43934
    endloop
  endfacet
  facet normal 0 1 0
    outer loop
      vertex 24 17.7 0.804
      vertex 27 17.7 0
      vertex 3 17.7 0.804
    endloop
  endfacet
  facet normal 0 1 0
    outer loop
      vertex 24 17.7 2.43934
      vertex 27 17.7 0
      vertex 24 17.7 0.804
    endloop
  endfacet
  facet normal 0 1 -0
    outer loop
      vertex 3 17.7 0.804
      vertex 2 17.7 3.5
      vertex 3 17.7 3.5
    endloop
  endfacet
  facet normal -0 1 0
    outer loop
      vertex 0 17.7 2.43934
      vertex 2 17.7 3.5
      vertex 3 17.7 0.804
    endloop
  endfacet
  facet normal 0 1 0
    outer loop
      vertex 2 17.7 3.5
      vertex 0 17.7 2.43934
      vertex 1.06066 17.7 3.5
    endloop
  endfacet
  facet normal 0 1 0
    outer loop
      vertex 3 17.7 0.804
      vertex 0 17.7 0
      vertex 0 17.7 2.43934
    endloop
  endfacet
  facet normal 0 1 0
    outer loop
      vertex 0 17.7 0
      vertex 3 17.7 0.804
      vertex 27 17.7 0
    endloop
  endfacet
  facet normal 1 0 0
    outer loop
      vertex 3 17.7 3.5
      vertex 3 16.896 0.804
      vertex 3 17.7 0.804
    endloop
  endfacet
  facet normal 1 0 0
    outer loop
      vertex 3 16.896 0.804
      vertex 3 0.804 0.804
      vertex 3 16.896 0
    endloop
  endfacet
  facet normal 1 0 0
    outer loop
      vertex 3 17.7 3.5
      vertex 3 0.804 0.804
      vertex 3 16.896 0.804
    endloop
  endfacet
  facet normal 1 -0 0
    outer loop
      vertex 3 0 3.5
      vertex 3 0.804 0.804
      vertex 3 17.7 3.5
    endloop
  endfacet
  facet normal 1 0 0
    outer loop
      vertex 3 0.804 0.804
      vertex 3 0 3.5
      vertex 3 0 0.804
    endloop
  endfacet
  facet normal 1 0 0
    outer loop
      vertex 3 16.896 0
      vertex 3 0.804 0.804
      vertex 3 0.804 0
    endloop
  endfacet
  facet normal -1 0 0
    outer loop
      vertex 24 16.896 0
      vertex 24 0.804 0
      vertex 24 16.896 0.804
    endloop
  endfacet
  facet normal -1 0 0
    outer loop
      vertex 24 16.896 0.804
      vertex 24 17.7 2.43934
      vertex 24 17.7 0.804
    endloop
  endfacet
  facet normal -1 0 0
    outer loop
      vertex 24 0.804 0.804
      vertex 24 16.896 0.804
      vertex 24 0.804 0
    endloop
  endfacet
  facet normal -1 0 0
    outer loop
      vertex 24 16.896 0.804
      vertex 24 0.804 0.804
      vertex 24 17.7 2.43934
    endloop
  endfacet
  facet normal -1 0 0
    outer loop
      vertex 24 0 2.43934
      vertex 24 0.804 0.804
      vertex 24 0 0.804
    endloop
  endfacet
  facet normal -1 0 0
    outer loop
      vertex 24 0.804 0.804
      vertex 24 0 2.43934
      vertex 24 17.7 2.43934
    endloop
  endfacet
  facet normal 0 -1 0
    outer loop
      vertex 3 16.896 0
      vertex 24 16.896 0.804
      vertex 3 16.896 0.804
    endloop
  endfacet
  facet normal 0 -1 -0
    outer loop
      vertex 24 16.896 0.804
      vertex 3 16.896 0
      vertex 24 16.896 0
    endloop
  endfacet
  facet normal 0 1 -0
    outer loop
      vertex 24 0.804 0
      vertex 3 0.804 0.804
      vertex 24 0.804 0.804
    endloop
  endfacet
  facet normal 0 1 0
    outer loop
      vertex 3 0.804 0.804
      vertex 24 0.804 0
      vertex 3 0.804 0
    endloop
  endfacet
  facet normal -0 0 1
    outer loop
      vertex 3 0.804 0.804
      vertex 24 0 0.804
      vertex 24 0.804 0.804
    endloop
  endfacet
  facet normal 0 0 1
    outer loop
      vertex 24 0 0.804
      vertex 3 0.804 0.804
      vertex 3 0 0.804
    endloop
  endfacet
  facet normal -0 0 1
    outer loop
      vertex 3 17.7 0.804
      vertex 24 16.896 0.804
      vertex 24 17.7 0.804
    endloop
  endfacet
  facet normal 0 0 1
    outer loop
      vertex 24 16.896 0.804
      vertex 3 17.7 0.804
      vertex 3 16.896 0.804
    endloop
  endfacet
  facet normal 0.707107 0.707107 0
    outer loop
      vertex 2 3 6.5
      vertex 1.5 3.5 3.5
      vertex 1.5 3.5 6.5
    endloop
  endfacet
  facet normal 0.707107 0.707107 0
    outer loop
      vertex 1.5 3.5 3.5
      vertex 2 3 6.5
      vertex 2 3 3.5
    endloop
  endfacet
  facet normal -0.707107 0.707107 0
    outer loop
      vertex -0.804 3 0
      vertex -0.304 3.5 6.5
      vertex -0.304 3.5 0
    endloop
  endfacet
  facet normal -0.707107 0.707107 0
    outer loop
      vertex -0.304 3.5 6.5
      vertex -0.804 3 0
      vertex -0.804 3 6.5
    endloop
  endfacet
  facet normal -1 0 0
    outer loop
      vertex -0.804 3 0
      vertex -0.804 0 4.5
      vertex -0.804 3 6.5
    endloop
  endfacet
  facet normal -1 0 0
    outer loop
      vertex -0.804 -1.104 0
      vertex -0.804 0 4.5
      vertex -0.804 3 0
    endloop
  endfacet
  facet normal -1 -0 0
    outer loop
      vertex -0.804 0 4.5
      vertex -0.804 -1.104 0
      vertex -0.804 -1.104 4.5
    endloop
  endfacet
  facet normal -1 -0 0
    outer loop
      vertex -0.804 3 6.5
      vertex -0.804 0 4.5
      vertex -0.804 0 6.5
    endloop
  endfacet
  facet normal 0 0 1
    outer loop
      vertex -0.804 3 6.5
      vertex 2 3 6.5
      vertex 1.5 3.5 6.5
    endloop
  endfacet
  facet normal 0 0 1
    outer loop
      vertex -0.804 3 6.5
      vertex 1.5 3.5 6.5
      vertex -0.304 3.5 6.5
    endloop
  endfacet
  facet normal 0 0 1
    outer loop
      vertex 2 3 6.5
      vertex -0.804 3 6.5
      vertex 2 0 6.5
    endloop
  endfacet
  facet normal 0 0 1
    outer loop
      vertex 2 0 6.5
      vertex -0.804 3 6.5
      vertex -0.804 0 6.5
    endloop
  endfacet
  facet normal 1 -0 0
    outer loop
      vertex 2 -1.104 4.5
      vertex 2 -0.299999 0
      vertex 2 -0.299999 4.5
    endloop
  endfacet
  facet normal 1 0 0
    outer loop
      vertex 2 -0.299999 0
      vertex 2 -1.104 4.5
      vertex 2 -1.104 0
    endloop
  endfacet
  facet normal 1 -0 0
    outer loop
      vertex 2 0 6.5
      vertex 2 3 3.5
      vertex 2 3 6.5
    endloop
  endfacet
  facet normal 1 0 0
    outer loop
      vertex 2 3 3.5
      vertex 2 0 6.5
      vertex 2 0 3.5
    endloop
  endfacet
  facet normal 0 -1 0
    outer loop
      vertex -0.804 -1.104 0
      vertex 2 -1.104 4.5
      vertex -0.804 -1.104 4.5
    endloop
  endfacet
  facet normal 0 -1 -0
    outer loop
      vertex 2 -1.104 4.5
      vertex -0.804 -1.104 0
      vertex 2 -1.104 0
    endloop
  endfacet
  facet normal 0 1 0
    outer loop
      vertex 1.06066 3.5 3.5
      vertex 1.5 3.5 6.5
      vertex 1.5 3.5 3.5
    endloop
  endfacet
  facet normal 0 1 0
    outer loop
      vertex 1.5 3.5 6.5
      vertex 1.06066 3.5 3.5
      vertex -0.304 3.5 6.5
    endloop
  endfacet
  facet normal 0 1 -0
    outer loop
      vertex 0 3.5 2.43934
      vertex -0.304 3.5 6.5
      vertex 1.06066 3.5 3.5
    endloop
  endfacet
  facet normal 0 1 0
    outer loop
      vertex -0.304 3.5 0
      vertex 0 3.5 2.43934
      vertex 0 3.5 0
    endloop
  endfacet
  facet normal 0 1 0
    outer loop
      vertex 0 3.5 2.43934
      vertex -0.304 3.5 0
      vertex -0.304 3.5 6.5
    endloop
  endfacet
  facet normal -0.707107 -0.707107 0
    outer loop
      vertex -0.304 14.2 0
      vertex -0.804 14.7 6.5
      vertex -0.804 14.7 0
    endloop
  endfacet
  facet normal -0.707107 -0.707107 0
    outer loop
      vertex -0.804 14.7 6.5
      vertex -0.304 14.2 0
      vertex -0.304 14.2 6.5
    endloop
  endfacet
  facet normal 0.707107 -0.707107 0
    outer loop
      vertex 1.5 14.2 6.5
      vertex 2 14.7 3.5
      vertex 2 14.7 6.5
    endloop
  endfacet
  facet normal 0.707107 -0.707107 0
    outer loop
      vertex 2 14.7 3.5
      vertex 1.5 14.2 6.5
      vertex 1.5 14.2 3.5
    endloop
  endfacet
  facet normal -1 0 0
    outer loop
      vertex -0.804 18.804 0
      vertex -0.804 17.7 4.5
      vertex -0.804 18.804 4.5
    endloop
  endfacet
  facet normal -1 0 0
    outer loop
      vertex -0.804 14.7 0
      vertex -0.804 17.7 4.5
      vertex -0.804 18.804 0
    endloop
  endfacet
  facet normal -1 0 0
    outer loop
      vertex -0.804 14.7 6.5
      vertex -0.804 17.7 4.5
      vertex -0.804 14.7 0
    endloop
  endfacet
  facet normal -1 0 0
    outer loop
      vertex -0.804 17.7 4.5
      vertex -0.804 14.7 6.5
      vertex -0.804 17.7 6.5
    endloop
  endfacet
  facet normal 0 0 1
    outer loop
      vertex -0.804 14.7 6.5
      vertex 2 14.7 6.5
      vertex 2 17.7 6.5
    endloop
  endfacet
  facet normal 0 0 1
    outer loop
      vertex 2 14.7 6.5
      vertex -0.804 14.7 6.5
      vertex 1.5 14.2 6.5
    endloop
  endfacet
  facet normal 0 0 1
    outer loop
      vertex -0.804 14.7 6.5
      vertex 2 17.7 6.5
      vertex -0.804 17.7 6.5
    endloop
  endfacet
  facet normal 0 0 1
    outer loop
      vertex 1.5 14.2 6.5
      vertex -0.804 14.7 6.5
      vertex -0.304 14.2 6.5
    endloop
  endfacet
  facet normal 1 -0 0
    outer loop
      vertex 2 18 4.5
      vertex 2 18.804 0
      vertex 2 18.804 4.5
    endloop
  endfacet
  facet normal 1 0 0
    outer loop
      vertex 2 18.804 0
      vertex 2 18 4.5
      vertex 2 18 0
    endloop
  endfacet
  facet normal 1 -0 0
    outer loop
      vertex 2 14.7 6.5
      vertex 2 17.7 3.5
      vertex 2 17.7 6.5
    endloop
  endfacet
  facet normal 1 0 0
    outer loop
      vertex 2 17.7 3.5
      vertex 2 14.7 6.5
      vertex 2 14.7 3.5
    endloop
  endfacet
  facet normal 0 -1 0
    outer loop
      vertex -0.304 14.2 6.5
      vertex 1.06066 14.2 3.5
      vertex 1.5 14.2 6.5
    endloop
  endfacet
  facet normal 0 -1 0
    outer loop
      vertex -0.304 14.2 6.5
      vertex 0 14.2 2.43934
      vertex 1.06066 14.2 3.5
    endloop
  endfacet
  facet normal 0 -1 0
    outer loop
      vertex -0.304 14.2 0
      vertex 0 14.2 2.43934
      vertex -0.304 14.2 6.5
    endloop
  endfacet
  facet normal 0 -1 -0
    outer loop
      vertex 0 14.2 2.43934
      vertex -0.304 14.2 0
      vertex 0 14.2 0
    endloop
  endfacet
  facet normal 0 -1 -0
    outer loop
      vertex 1.5 14.2 6.5
      vertex 1.06066 14.2 3.5
      vertex 1.5 14.2 3.5
    endloop
  endfacet
  facet normal 0 1 -0
    outer loop
      vertex 2 18.804 0
      vertex -0.804 18.804 4.5
      vertex 2 18.804 4.5
    endloop
  endfacet
  facet normal 0 1 0
    outer loop
      vertex -0.804 18.804 4.5
      vertex 2 18.804 0
      vertex -0.804 18.804 0
    endloop
  endfacet
  facet normal 0.707107 0.707107 0
    outer loop
      vertex 27.804 3 6.5
      vertex 27.304 3.5 0
      vertex 27.304 3.5 6.5
    endloop
  endfacet
  facet normal 0.707107 0.707107 0
    outer loop
      vertex 27.304 3.5 0
      vertex 27.804 3 6.5
      vertex 27.804 3 0
    endloop
  endfacet
  facet normal -0.707107 0.707107 0
    outer loop
      vertex 25.0607 3.06066 3.5
      vertex 25.5 3.5 6.5
      vertex 25.5 3.5 3.5
    endloop
  endfacet
  facet normal -0.707107 0.707107 0
    outer loop
      vertex 25 3 6.5
      vertex 25.0607 3.06066 3.5
      vertex 25 3 3.43934
    endloop
  endfacet
  facet normal -0.707107 0.707107 0
    outer loop
      vertex 25.0607 3.06066 3.5
      vertex 25 3 6.5
      vertex 25.5 3.5 6.5
    endloop
  endfacet
  facet normal -1 0 0
    outer loop
      vertex 25 -1.104 0
      vertex 25 -0.299999 4.5
      vertex 25 -0.299999 0
    endloop
  endfacet
  facet normal -1 -0 0
    outer loop
      vertex 25 -0.299999 4.5
      vertex 25 -1.104 0
      vertex 25 -1.104 4.5
    endloop
  endfacet
  facet normal -1 0 0
    outer loop
      vertex 25 0 3.43934
      vertex 25 3 6.5
      vertex 25 3 3.43934
    endloop
  endfacet
  facet normal -1 -0 0
    outer loop
      vertex 25 3 6.5
      vertex 25 0 3.43934
      vertex 25 0 6.5
    endloop
  endfacet
  facet normal 0 0 1
    outer loop
      vertex 25 3 6.5
      vertex 27.804 3 6.5
      vertex 27.304 3.5 6.5
    endloop
  endfacet
  facet normal 0 0 1
    outer loop
      vertex 25 3 6.5
      vertex 27.304 3.5 6.5
      vertex 25.5 3.5 6.5
    endloop
  endfacet
  facet normal 0 0 1
    outer loop
      vertex 27.804 3 6.5
      vertex 25 3 6.5
      vertex 27.804 0 6.5
    endloop
  endfacet
  facet normal 0 0 1
    outer loop
      vertex 27.804 0 6.5
      vertex 25 3 6.5
      vertex 25 0 6.5
    endloop
  endfacet
  facet normal 1 0 0
    outer loop
      vertex 27.804 0 4.5
      vertex 27.804 3 6.5
      vertex 27.804 0 6.5
    endloop
  endfacet
  facet normal 1 0 0
    outer loop
      vertex 27.804 3 6.5
      vertex 27.804 0 4.5
      vertex 27.804 3 0
    endloop
  endfacet
  facet normal 1 0 0
    outer loop
      vertex 27.804 -1.104 0
      vertex 27.804 0 4.5
      vertex 27.804 -1.104 4.5
    endloop
  endfacet
  facet normal 1 0 0
    outer loop
      vertex 27.804 0 4.5
      vertex 27.804 -1.104 0
      vertex 27.804 3 0
    endloop
  endfacet
  facet normal 0 -1 0
    outer loop
      vertex 25 -1.104 0
      vertex 27.804 -1.104 4.5
      vertex 25 -1.104 4.5
    endloop
  endfacet
  facet normal 0 -1 -0
    outer loop
      vertex 27.804 -1.104 4.5
      vertex 25 -1.104 0
      vertex 27.804 -1.104 0
    endloop
  endfacet
  facet normal 0 1 0
    outer loop
      vertex 27.304 3.5 6.5
      vertex 27 3.5 3.5
      vertex 25.5 3.5 6.5
    endloop
  endfacet
  facet normal 0 1 -0
    outer loop
      vertex 27.304 3.5 0
      vertex 27 3.5 3.5
      vertex 27.304 3.5 6.5
    endloop
  endfacet
  facet normal 0 1 0
    outer loop
      vertex 27 3.5 3.5
      vertex 27.304 3.5 0
      vertex 27 3.5 0
    endloop
  endfacet
  facet normal 0 1 0
    outer loop
      vertex 25.5 3.5 6.5
      vertex 27 3.5 3.5
      vertex 25.5 3.5 3.5
    endloop
  endfacet
  facet normal -0.707107 -0.707107 0
    outer loop
      vertex 25.0607 14.6393 3.5
      vertex 25 14.7 6.5
      vertex 25 14.7 3.43934
    endloop
  endfacet
  facet normal -0.707107 -0.707107 -0
    outer loop
      vertex 25.5 14.2 6.5
      vertex 25.0607 14.6393 3.5
      vertex 25.5 14.2 3.5
    endloop
  endfacet
  facet normal -0.707107 -0.707107 0
    outer loop
      vertex 25.0607 14.6393 3.5
      vertex 25.5 14.2 6.5
      vertex 25 14.7 6.5
    endloop
  endfacet
  facet normal 0.707107 -0.707107 0
    outer loop
      vertex 27.304 14.2 6.5
      vertex 27.804 14.7 0
      vertex 27.804 14.7 6.5
    endloop
  endfacet
  facet normal 0.707107 -0.707107 0
    outer loop
      vertex 27.804 14.7 0
      vertex 27.304 14.2 6.5
      vertex 27.304 14.2 0
    endloop
  endfacet
  facet normal -1 0 0
    outer loop
      vertex 25 18 0
      vertex 25 18.804 4.5
      vertex 25 18.804 0
    endloop
  endfacet
  facet normal -1 -0 0
    outer loop
      vertex 25 18.804 4.5
      vertex 25 18 0
      vertex 25 18 4.5
    endloop
  endfacet
  facet normal -1 0 0
    outer loop
      vertex 25 14.7 3.43934
      vertex 25 17.7 6.5
      vertex 25 17.7 3.43934
    endloop
  endfacet
  facet normal -1 -0 0
    outer loop
      vertex 25 17.7 6.5
      vertex 25 14.7 3.43934
      vertex 25 14.7 6.5
    endloop
  endfacet
  facet normal 0 0 1
    outer loop
      vertex 25 14.7 6.5
      vertex 27.804 14.7 6.5
      vertex 27.804 17.7 6.5
    endloop
  endfacet
  facet normal 0 0 1
    outer loop
      vertex 27.804 14.7 6.5
      vertex 25 14.7 6.5
      vertex 27.304 14.2 6.5
    endloop
  endfacet
  facet normal 0 0 1
    outer loop
      vertex 25 14.7 6.5
      vertex 27.804 17.7 6.5
      vertex 25 17.7 6.5
    endloop
  endfacet
  facet normal 0 0 1
    outer loop
      vertex 27.304 14.2 6.5
      vertex 25 14.7 6.5
      vertex 25.5 14.2 6.5
    endloop
  endfacet
  facet normal 1 0 0
    outer loop
      vertex 27.804 17.7 6.5
      vertex 27.804 14.7 6.5
      vertex 27.804 17.7 4.5
    endloop
  endfacet
  facet normal 1 -0 0
    outer loop
      vertex 27.804 17.7 4.5
      vertex 27.804 18.804 0
      vertex 27.804 18.804 4.5
    endloop
  endfacet
  facet normal 1 0 0
    outer loop
      vertex 27.804 14.7 0
      vertex 27.804 17.7 4.5
      vertex 27.804 14.7 6.5
    endloop
  endfacet
  facet normal 1 0 0
    outer loop
      vertex 27.804 17.7 4.5
      vertex 27.804 14.7 0
      vertex 27.804 18.804 0
    endloop
  endfacet
  facet normal 0 -1 0
    outer loop
      vertex 27 14.2 3.5
      vertex 25.5 14.2 6.5
      vertex 25.5 14.2 3.5
    endloop
  endfacet
  facet normal 0 -1 0
    outer loop
      vertex 25.5 14.2 6.5
      vertex 27 14.2 3.5
      vertex 27.304 14.2 6.5
    endloop
  endfacet
  facet normal 0 -1 0
    outer loop
      vertex 27.304 14.2 0
      vertex 27 14.2 3.5
      vertex 27 14.2 0
    endloop
  endfacet
  facet normal 0 -1 0
    outer loop
      vertex 27 14.2 3.5
      vertex 27.304 14.2 0
      vertex 27.304 14.2 6.5
    endloop
  endfacet
  facet normal 0 1 -0
    outer loop
      vertex 27.804 18.804 0
      vertex 25 18.804 4.5
      vertex 27.804 18.804 4.5
    endloop
  endfacet
  facet normal 0 1 0
    outer loop
      vertex 25 18.804 4.5
      vertex 27.804 18.804 0
      vertex 25 18.804 0
    endloop
  endfacet
  facet normal 1 -0 0
    outer loop
      vertex 0 -0.299999 4.5
      vertex 0 0 2.43934
      vertex 0 0 4.5
    endloop
  endfacet
  facet normal 1 0 0
    outer loop
      vertex 0 -0.299999 0
      vertex 0 0 2.43934
      vertex 0 -0.299999 4.5
    endloop
  endfacet
  facet normal 1 0 0
    outer loop
      vertex 0 0 2.43934
      vertex 0 -0.299999 0
      vertex 0 0 0
    endloop
  endfacet
  facet normal -1 0 0
    outer loop
      vertex 27 -0.299999 0
      vertex 27 0 3.5
      vertex 27 0 0
    endloop
  endfacet
  facet normal -1 0 0
    outer loop
      vertex 27 -0.299999 4.5
      vertex 27 0 3.5
      vertex 27 -0.299999 0
    endloop
  endfacet
  facet normal -1 0 0
    outer loop
      vertex 27 0 3.5
      vertex 27 -0.299999 4.5
      vertex 27 0 4.5
    endloop
  endfacet
  facet normal 0 1 -0
    outer loop
      vertex 2 -0.299999 0
      vertex 0 -0.299999 4.5
      vertex 2 -0.299999 4.5
    endloop
  endfacet
  facet normal 0 1 0
    outer loop
      vertex 0 -0.299999 4.5
      vertex 2 -0.299999 0
      vertex 0 -0.299999 0
    endloop
  endfacet
  facet normal 0 1 -0
    outer loop
      vertex 27 -0.299999 0
      vertex 25 -0.299999 4.5
      vertex 27 -0.299999 4.5
    endloop
  endfacet
  facet normal 0 1 0
    outer loop
      vertex 25 -0.299999 4.5
      vertex 27 -0.299999 0
      vertex 25 -0.299999 0
    endloop
  endfacet
  facet normal 1 0 0
    outer loop
      vertex 0 17.7 2.43934
      vertex 0 18 4.5
      vertex 0 17.7 4.5
    endloop
  endfacet
  facet normal 1 0 0
    outer loop
      vertex 0 18 4.5
      vertex 0 17.7 2.43934
      vertex 0 18 0
    endloop
  endfacet
  facet normal 1 0 0
    outer loop
      vertex 0 18 0
      vertex 0 17.7 2.43934
      vertex 0 17.7 0
    endloop
  endfacet
  facet normal -1 0 0
    outer loop
      vertex 27 17.7 3.5
      vertex 27 18 0
      vertex 27 17.7 0
    endloop
  endfacet
  facet normal -1 0 0
    outer loop
      vertex 27 18 0
      vertex 27 17.7 3.5
      vertex 27 18 4.5
    endloop
  endfacet
  facet normal -1 -0 0
    outer loop
      vertex 27 18 4.5
      vertex 27 17.7 3.5
      vertex 27 17.7 4.5
    endloop
  endfacet
  facet normal 0 -1 0
    outer loop
      vertex 0 18 0
      vertex 2 18 4.5
      vertex 0 18 4.5
    endloop
  endfacet
  facet normal 0 -1 -0
    outer loop
      vertex 2 18 4.5
      vertex 0 18 0
      vertex 2 18 0
    endloop
  endfacet
  facet normal 0 -1 0
    outer loop
      vertex 25 18 0
      vertex 27 18 4.5
      vertex 25 18 4.5
    endloop
  endfacet
  facet normal 0 -1 -0
    outer loop
      vertex 27 18 4.5
      vertex 25 18 0
      vertex 27 18 0
    endloop
  endfacet
  facet normal 0 0 1
    outer loop
      vertex 0 0 4.5
      vertex -0.804 0 4.5
      vertex 0 -0.299999 4.5
    endloop
  endfacet
  facet normal -0 0 1
    outer loop
      vertex 0 -0.299999 4.5
      vertex 2 -1.104 4.5
      vertex 2 -0.299999 4.5
    endloop
  endfacet
  facet normal 0 0 1
    outer loop
      vertex -0.804 -1.104 4.5
      vertex 0 -0.299999 4.5
      vertex -0.804 0 4.5
    endloop
  endfacet
  facet normal 0 0 1
    outer loop
      vertex 0 -0.299999 4.5
      vertex -0.804 -1.104 4.5
      vertex 2 -1.104 4.5
    endloop
  endfacet
  facet normal 0 0 1
    outer loop
      vertex 27 -0.299999 4.5
      vertex 27.804 0 4.5
      vertex 27 0 4.5
    endloop
  endfacet
  facet normal 0 0 1
    outer loop
      vertex 27.804 0 4.5
      vertex 27 -0.299999 4.5
      vertex 27.804 -1.104 4.5
    endloop
  endfacet
  facet normal 0 0 1
    outer loop
      vertex 25 -1.104 4.5
      vertex 27 -0.299999 4.5
      vertex 25 -0.299999 4.5
    endloop
  endfacet
  facet normal 0 0 1
    outer loop
      vertex 27 -0.299999 4.5
      vertex 25 -1.104 4.5
      vertex 27.804 -1.104 4.5
    endloop
  endfacet
  facet normal 0 0 1
    outer loop
      vertex 2 18.804 4.5
      vertex 0 18 4.5
      vertex 2 18 4.5
    endloop
  endfacet
  facet normal -0 0 1
    outer loop
      vertex -0.804 18.804 4.5
      vertex 0 18 4.5
      vertex 2 18.804 4.5
    endloop
  endfacet
  facet normal 0 0 1
    outer loop
      vertex -0.804 17.7 4.5
      vertex 0 18 4.5
      vertex -0.804 18.804 4.5
    endloop
  endfacet
  facet normal 0 0 1
    outer loop
      vertex 0 18 4.5
      vertex -0.804 17.7 4.5
      vertex 0 17.7 4.5
    endloop
  endfacet
  facet normal 0 0 1
    outer loop
      vertex 27.804 18.804 4.5
      vertex 27 18 4.5
      vertex 27.804 17.7 4.5
    endloop
  endfacet
  facet normal -0 0 1
    outer loop
      vertex 25 18.804 4.5
      vertex 27 18 4.5
      vertex 27.804 18.804 4.5
    endloop
  endfacet
  facet normal 0 0 1
    outer loop
      vertex 27 18 4.5
      vertex 25 18.804 4.5
      vertex 25 18 4.5
    endloop
  endfacet
  facet normal 0 0 1
    outer loop
      vertex 27.804 17.7 4.5
      vertex 27 18 4.5
      vertex 27 17.7 4.5
    endloop
  endfacet
endsolid OpenSCAD_Model
